<svg width="60" height="60" viewBox="0 0 60 60" fill="none" xmlns="http://www.w3.org/2000/svg">
<g id="fi-bs-user" clip-path="url(#clip0_2_1860)">
<path id="Vector" d="M52.5 60.0015H45V47.5015C45 46.1754 44.4732 44.9037 43.5355 43.966C42.5979 43.0283 41.3261 42.5015 40 42.5015H20C18.6739 42.5015 17.4021 43.0283 16.4645 43.966C15.5268 44.9037 15 46.1754 15 47.5015V60.0015H7.5V47.5015C7.50397 44.1875 8.8222 41.0104 11.1655 38.6671C13.5089 36.3237 16.686 35.0055 20 35.0015H40C43.314 35.0055 46.4911 36.3237 48.8345 38.6671C51.1778 41.0104 52.496 44.1875 52.5 47.5015V60.0015Z" fill="#374957"/>
<path id="Vector_2" d="M30.0001 29.9998C27.0334 29.9998 24.1333 29.1201 21.6666 27.4719C19.1998 25.8237 17.2773 23.481 16.1419 20.7401C15.0066 17.9992 14.7096 14.9832 15.2883 12.0735C15.8671 9.16377 17.2957 6.49102 19.3935 4.39324C21.4913 2.29545 24.1641 0.866838 27.0738 0.28806C29.9835 -0.290719 32.9995 0.00633144 35.7404 1.14165C38.4813 2.27696 40.8239 4.19955 42.4722 6.66629C44.1204 9.13302 45.0001 12.0331 45.0001 14.9998C44.9962 18.9769 43.4145 22.7899 40.6023 25.6021C37.7902 28.4142 33.9772 29.9959 30.0001 29.9998ZM30.0001 7.49984C28.5168 7.49984 27.0667 7.93971 25.8334 8.76382C24.6 9.58793 23.6387 10.7593 23.071 12.1297C22.5034 13.5002 22.3548 15.0082 22.6442 16.463C22.9336 17.9179 23.6479 19.2542 24.6968 20.3031C25.7457 21.352 27.0821 22.0663 28.537 22.3557C29.9918 22.6451 31.4998 22.4966 32.8703 21.9289C34.2407 21.3613 35.412 20.4 36.2361 19.1666C37.0603 17.9332 37.5001 16.4832 37.5001 14.9998C37.5001 13.0107 36.71 11.1031 35.3034 9.69654C33.8969 8.29002 31.9893 7.49984 30.0001 7.49984Z" fill="#374957"/>
</g>
<defs>
<clipPath id="clip0_2_1860">
<rect width="60" height="60" fill="white"/>
</clipPath>
</defs>
</svg>
