<svg width="60" height="60" viewBox="0 0 60 60" fill="none" xmlns="http://www.w3.org/2000/svg">
<g id="fi-rr-plus" clip-path="url(#clip0_2_1839)">
<path id="Vector" d="M57.5 27.5H32.5V2.5C32.5 1.83696 32.2366 1.20107 31.7678 0.732233C31.2989 0.263392 30.663 0 30 0V0C29.337 0 28.7011 0.263392 28.2322 0.732233C27.7634 1.20107 27.5 1.83696 27.5 2.5V27.5H2.5C1.83696 27.5 1.20107 27.7634 0.732233 28.2322C0.263392 28.7011 0 29.337 0 30H0C0 30.663 0.263392 31.2989 0.732233 31.7678C1.20107 32.2366 1.83696 32.5 2.5 32.5H27.5V57.5C27.5 58.163 27.7634 58.7989 28.2322 59.2678C28.7011 59.7366 29.337 60 30 60C30.663 60 31.2989 59.7366 31.7678 59.2678C32.2366 58.7989 32.5 58.163 32.5 57.5V32.5H57.5C58.163 32.5 58.7989 32.2366 59.2678 31.7678C59.7366 31.2989 60 30.663 60 30C60 29.337 59.7366 28.7011 59.2678 28.2322C58.7989 27.7634 58.163 27.5 57.5 27.5Z" fill="#374957"/>
</g>
<defs>
<clipPath id="clip0_2_1839">
<rect width="60" height="60" fill="white"/>
</clipPath>
</defs>
</svg>
