<svg width="14" height="16" viewBox="0 0 14 16" fill="none" xmlns="http://www.w3.org/2000/svg">
<g id="Group">
<path id="Vector" d="M13.4517 12.4604C13.21 13.0191 12.9238 13.5332 12.5921 14.0061C12.1401 14.6505 11.77 15.0966 11.4847 15.3444C11.0426 15.751 10.5688 15.9592 10.0615 15.971C9.69736 15.971 9.25815 15.8675 8.74692 15.6572C8.23399 15.4479 7.76263 15.3444 7.33162 15.3444C6.87959 15.3444 6.3948 15.4479 5.87626 15.6572C5.35691 15.8675 4.93854 15.977 4.61867 15.9879C4.1322 16.0085 3.64731 15.7943 3.1633 15.3444C2.85438 15.0749 2.468 14.6129 2.0051 13.9587C1.50847 13.2599 1.10017 12.4496 0.780294 11.5258C0.437722 10.528 0.265991 9.56174 0.265991 8.6263C0.265991 7.55476 0.497533 6.63057 0.961304 5.85611C1.32579 5.23403 1.81068 4.74331 2.41756 4.38308C3.02444 4.02284 3.68017 3.83926 4.38634 3.82752C4.77274 3.82752 5.27943 3.94704 5.90912 4.18194C6.53702 4.41762 6.94019 4.53715 7.11696 4.53715C7.2491 4.53715 7.697 4.39739 8.45626 4.11877C9.17428 3.86039 9.78026 3.7534 10.2767 3.79554C11.6219 3.90411 12.6326 4.4344 13.3046 5.38978C12.1016 6.11875 11.5065 7.13974 11.5183 8.44954C11.5291 9.46975 11.8993 10.3187 12.6267 10.9928C12.9562 11.3057 13.3244 11.5475 13.734 11.7192C13.6453 11.9768 13.5514 12.2236 13.4517 12.4604ZM10.3665 0.319875C10.3665 1.11952 10.0744 1.86614 9.49207 2.55721C8.78936 3.37875 7.93939 3.85348 7.01767 3.77857C7.00593 3.68264 6.99911 3.58167 6.99911 3.47557C6.99911 2.70792 7.33329 1.88637 7.92676 1.21465C8.22304 0.874544 8.59986 0.591752 9.05682 0.366163C9.51279 0.143939 9.94409 0.0210451 10.3497 0C10.3616 0.1069 10.3665 0.213806 10.3665 0.319864V0.319875Z" fill="#0E0E0E"/>
</g>
</svg>
