<svg width="16" height="16" viewBox="0 0 16 16" fill="none" xmlns="http://www.w3.org/2000/svg">
<g id="Logo" clip-path="url(#clip0_26_18)">
<path id="Vector" d="M15.6261 8.14967C15.6261 7.49416 15.573 7.01581 15.4578 6.51974H7.97253V9.4784H12.3662C12.2777 10.2137 11.7993 11.321 10.7363 12.065L10.7214 12.1641L13.0881 13.9975L13.2521 14.0139C14.758 12.6231 15.6261 10.5768 15.6261 8.14967Z" fill="#4285F4"/>
<path id="Vector_2" d="M7.97251 15.945C10.1251 15.945 11.9321 15.2363 13.2521 14.0139L10.7363 12.065C10.0631 12.5345 9.15951 12.8623 7.97251 12.8623C5.86424 12.8623 4.07487 11.4716 3.437 9.54932L3.34351 9.55726L0.882559 11.4618L0.850376 11.5513C2.1614 14.1556 4.85435 15.945 7.97251 15.945Z" fill="#34A853"/>
<path id="Vector_3" d="M3.43701 9.5493C3.2687 9.05324 3.1713 8.5217 3.1713 7.97251C3.1713 7.42326 3.2687 6.89177 3.42815 6.39571L3.42369 6.29006L0.931908 4.35492L0.850382 4.3937C0.310046 5.47443 0 6.68805 0 7.97251C0 9.25697 0.310046 10.4705 0.850382 11.5513L3.43701 9.5493Z" fill="#FBBC05"/>
<path id="Vector_4" d="M7.97251 3.08269C9.46955 3.08269 10.4794 3.72934 11.0552 4.26974L13.3052 2.07286C11.9234 0.788397 10.1251 0 7.97251 0C4.85435 0 2.1614 1.78937 0.850376 4.39371L3.42815 6.39573C4.07487 4.47347 5.86424 3.08269 7.97251 3.08269Z" fill="#EB4335"/>
</g>
<defs>
<clipPath id="clip0_26_18">
<rect width="16" height="16" fill="white"/>
</clipPath>
</defs>
</svg>
